<?xml version="1.0" encoding="UTF-8" standalone="no"?>
<!DOCTYPE svg PUBLIC "-//W3C//DTD SVG 1.1//EN"
 "http://www.w3.org/Graphics/SVG/1.1/DTD/svg11.dtd">
<!-- Generated by graphviz version 2.47.1 (20210417.1919)
 -->
<!-- Title: G Pages: 1 -->
<svg width="254pt" height="212pt"
 viewBox="0.00 0.00 254.00 212.00" xmlns="http://www.w3.org/2000/svg" xmlns:xlink="http://www.w3.org/1999/xlink">
<g id="graph0" class="graph" transform="scale(1 1) rotate(0) translate(4 208)">
<title>G</title>
<polygon fill="white" stroke="transparent" points="-4,4 -4,-208 250,-208 250,4 -4,4"/>
<!-- foo -->
<g id="node1" class="node">
<title>foo</title>
<polygon fill="none" stroke="black" points="0,-111.5 0,-203.5 111,-203.5 111,-111.5 0,-111.5"/>
<text text-anchor="middle" x="28.5" y="-153.8" font-family="Times,serif" font-size="14.00">&quot;foo.o&quot;</text>
<polyline fill="none" stroke="black" points="57,-111.5 57,-203.5 "/>
<text text-anchor="middle" x="84" y="-188.3" font-family="Times,serif" font-size="14.00">.data</text>
<polyline fill="none" stroke="black" points="57,-180.5 111,-180.5 "/>
<text text-anchor="middle" x="84" y="-165.3" font-family="Times,serif" font-size="14.00">.bss</text>
<polyline fill="none" stroke="black" points="57,-157.5 111,-157.5 "/>
<text text-anchor="middle" x="84" y="-142.3" font-family="Times,serif" font-size="14.00">.rodata</text>
<polyline fill="none" stroke="black" points="57,-134.5 111,-134.5 "/>
<text text-anchor="middle" x="84" y="-119.3" font-family="Times,serif" font-size="14.00">.text</text>
</g>
<!-- aout -->
<g id="node3" class="node">
<title>aout</title>
<polygon fill="none" stroke="black" points="147,-78.5 147,-124.5 246,-124.5 246,-78.5 147,-78.5"/>
<text text-anchor="middle" x="168.5" y="-109.3" font-family="Times,serif" font-size="14.00">.data</text>
<polyline fill="none" stroke="black" points="147,-101.5 190,-101.5 "/>
<text text-anchor="middle" x="168.5" y="-86.3" font-family="Times,serif" font-size="14.00">.text</text>
<polyline fill="none" stroke="black" points="190,-78.5 190,-124.5 "/>
<text text-anchor="middle" x="218" y="-97.8" font-family="Times,serif" font-size="14.00">&quot;a.out&quot;</text>
</g>
<!-- foo&#45;&gt;aout -->
<g id="edge1" class="edge">
<title>foo:data&#45;&gt;aout:data</title>
<path fill="none" stroke="black" d="M111,-192.5C145.52,-192.5 116.21,-129.29 137.27,-115.95"/>
<polygon fill="black" stroke="black" points="138.16,-119.34 147,-113.5 136.45,-112.55 138.16,-119.34"/>
</g>
<!-- foo&#45;&gt;aout -->
<g id="edge2" class="edge">
<title>foo:bss&#45;&gt;aout:data</title>
<path fill="none" stroke="black" d="M111,-169.5C136.43,-169.5 122.89,-128.14 137.35,-116.51"/>
<polygon fill="black" stroke="black" points="138.5,-119.82 147,-113.5 136.41,-113.14 138.5,-119.82"/>
</g>
<!-- foo&#45;&gt;aout -->
<g id="edge3" class="edge">
<title>foo:rodata&#45;&gt;aout:data</title>
<path fill="none" stroke="black" d="M111,-145.5C128.23,-145.5 127.18,-124.78 137.27,-116.69"/>
<polygon fill="black" stroke="black" points="138.58,-119.94 147,-113.5 136.41,-113.28 138.58,-119.94"/>
</g>
<!-- foo&#45;&gt;aout -->
<g id="edge4" class="edge">
<title>foo:text&#45;&gt;aout:text</title>
<path fill="none" stroke="black" d="M111,-122.5C128.47,-122.5 127.08,-101.13 137.18,-92.78"/>
<polygon fill="black" stroke="black" points="138.63,-95.99 147,-89.5 136.41,-89.35 138.63,-95.99"/>
</g>
<!-- bar -->
<g id="node2" class="node">
<title>bar</title>
<polygon fill="none" stroke="black" points="0.5,-0.5 0.5,-92.5 110.5,-92.5 110.5,-0.5 0.5,-0.5"/>
<text text-anchor="middle" x="28.5" y="-42.8" font-family="Times,serif" font-size="14.00">&quot;bar.o&quot;</text>
<polyline fill="none" stroke="black" points="56.5,-0.5 56.5,-92.5 "/>
<text text-anchor="middle" x="83.5" y="-77.3" font-family="Times,serif" font-size="14.00">.data</text>
<polyline fill="none" stroke="black" points="56.5,-69.5 110.5,-69.5 "/>
<text text-anchor="middle" x="83.5" y="-54.3" font-family="Times,serif" font-size="14.00">.bss</text>
<polyline fill="none" stroke="black" points="56.5,-46.5 110.5,-46.5 "/>
<text text-anchor="middle" x="83.5" y="-31.3" font-family="Times,serif" font-size="14.00">.rodata</text>
<polyline fill="none" stroke="black" points="56.5,-23.5 110.5,-23.5 "/>
<text text-anchor="middle" x="83.5" y="-8.3" font-family="Times,serif" font-size="14.00">.text</text>
</g>
<!-- bar&#45;&gt;aout -->
<g id="edge5" class="edge">
<title>bar:data&#45;&gt;aout:data</title>
<path fill="none" stroke="black" d="M111,-81.5C128.23,-81.5 127.18,-102.22 137.27,-110.31"/>
<polygon fill="black" stroke="black" points="136.41,-113.72 147,-113.5 138.58,-107.06 136.41,-113.72"/>
</g>
<!-- bar&#45;&gt;aout -->
<g id="edge6" class="edge">
<title>bar:bss&#45;&gt;aout:data</title>
<path fill="none" stroke="black" d="M111,-58.5C135.88,-58.5 123.31,-98.38 137.07,-110.22"/>
<polygon fill="black" stroke="black" points="136.41,-113.69 147,-113.5 138.6,-107.04 136.41,-113.69"/>
</g>
<!-- bar&#45;&gt;aout -->
<g id="edge7" class="edge">
<title>bar:rodata&#45;&gt;aout:data</title>
<path fill="none" stroke="black" d="M111,-34.5C145.52,-34.5 116.21,-97.71 137.27,-111.05"/>
<polygon fill="black" stroke="black" points="136.45,-114.45 147,-113.5 138.16,-107.66 136.45,-114.45"/>
</g>
<!-- bar&#45;&gt;aout -->
<g id="edge8" class="edge">
<title>bar:text&#45;&gt;aout:text</title>
<path fill="none" stroke="black" d="M111,-11.5C145,-11.5 116.71,-73.37 137.09,-86.9"/>
<polygon fill="black" stroke="black" points="136.44,-90.35 147,-89.5 138.21,-83.58 136.44,-90.35"/>
</g>
</g>
</svg>
